<svg xmlns="http://www.w3.org/2000/svg" width="120.3mm" height="128.41mm" viewBox="0 0 341 364">
  <defs>
    <style>

      .cls-1 {
        stroke-width: 2px;
      }

      .cls-2 {
        stroke-width: 0.5px;
      }
    </style>
  </defs>
  <title>rick12</title>
  <g id="rick">
    <g id="bridge">
      <g id="bridge-outer">
        <path d="M204.91,238.44a.85.85,0,0,1,.83.83v12.42a.85.85,0,0,1-.83.83H140.74a.85.85,0,0,1-.83-.83V239.28a.85.85,0,0,1,.83-.83h64.17m0-2H140.74a2.84,2.84,0,0,0-2.83,2.83v12.42a2.84,2.84,0,0,0,2.83,2.83h64.17a2.84,2.84,0,0,0,2.83-2.83V239.28a2.84,2.84,0,0,0-2.83-2.83Z"/>
      </g>
      <g id="bridge-outer-2" data-name="bridge-outer">
        <path d="M195.49,238.44v14.08H150.16V238.44h45.33m2-2H148.16v18.08h49.33V236.44Z"/>
      </g>
    </g>
    <g id="pickup-rear">
      <g id="rear-outer">
        <path d="M201.77,203.36a6.51,6.51,0,0,1,6.5,6.5v15.07a6.51,6.51,0,0,1-6.5,6.5h-57.9a6.51,6.51,0,0,1-6.5-6.5V209.86a6.51,6.51,0,0,1,6.5-6.5h57.9m0-2h-57.9a8.53,8.53,0,0,0-8.5,8.5v15.07a8.53,8.53,0,0,0,8.5,8.5h57.9a8.53,8.53,0,0,0,8.5-8.5V209.86a8.53,8.53,0,0,0-8.5-8.5Z"/>
      </g>
      <circle cx="205.44" cy="217.37" r="1.42" transform="translate(-93.61 212.23) rotate(-45.63)"/>
      <circle cx="205.44" cy="208.79" r="1.42" transform="translate(-87.48 209.65) rotate(-45.63)"/>
      <circle cx="205.44" cy="226.04" r="1.42" transform="translate(-99.81 214.84) rotate(-45.63)"/>
      <circle cx="140.2" cy="217.37" r="1.42" transform="translate(-113.23 165.59) rotate(-45.63)"/>
      <circle cx="140.2" cy="208.79" r="1.42" transform="translate(-107.09 163.01) rotate(-45.63)"/>
      <circle cx="140.2" cy="226.04" r="1.42" transform="translate(-119.43 168.2) rotate(-45.63)"/>
      <g id="rear-inner">
        <path d="M197.12,207.92a3.67,3.67,0,0,1,3.67,3.67v11.57a3.67,3.67,0,0,1-3.67,3.67H148.54a3.67,3.67,0,0,1-3.67-3.67V211.59a3.67,3.67,0,0,1,3.67-3.67h48.58m0-2H148.54a5.69,5.69,0,0,0-5.67,5.67v11.57a5.69,5.69,0,0,0,5.67,5.67h48.58a5.69,5.69,0,0,0,5.67-5.67V211.59a5.69,5.69,0,0,0-5.67-5.67Z"/>
      </g>
      <g id="rear-toaster-lower">
        <path d="M151.47,224.63a2.58,2.58,0,1,1,0-5.17h42.71a2.58,2.58,0,0,1,0,5.17Z"/>
        <path d="M194.18,219.71a2.33,2.33,0,1,1,0,4.67H151.47a2.33,2.33,0,1,1,0-4.67h42.71m0-.5H151.47a2.83,2.83,0,1,0,0,5.67h42.71a2.83,2.83,0,1,0,0-5.67Z"/>
      </g>
      <g id="rear-toaster-upper">
        <path d="M151.47,215.38a2.58,2.58,0,1,1,0-5.17h42.71a2.58,2.58,0,0,1,0,5.17Z"/>
        <path d="M194.18,210.46a2.33,2.33,0,1,1,0,4.67H151.47a2.33,2.33,0,1,1,0-4.67h42.71m0-.5H151.47a2.83,2.83,0,1,0,0,5.67h42.71a2.83,2.83,0,1,0,0-5.67Z"/>
      </g>
    </g>
    <g id="pickup-front">
      <g id="front-outer">
        <path d="M201.77,101.36a6.51,6.51,0,0,1,6.5,6.5v15.07a6.51,6.51,0,0,1-6.5,6.5h-57.9a6.51,6.51,0,0,1-6.5-6.5V107.86a6.51,6.51,0,0,1,6.5-6.5h57.9m0-2h-57.9a8.53,8.53,0,0,0-8.5,8.5v15.07a8.53,8.53,0,0,0,8.5,8.5h57.9a8.53,8.53,0,0,0,8.5-8.5V107.86a8.53,8.53,0,0,0-8.5-8.5Z"/>
      </g>
      <circle cx="205.44" cy="115.37" r="1.42" transform="translate(-20.69 181.56) rotate(-45.63)"/>
      <circle cx="205.44" cy="106.79" r="1.42" transform="translate(-14.56 178.98) rotate(-45.63)"/>
      <circle cx="205.44" cy="124.04" r="1.42" transform="translate(-26.89 184.16) rotate(-45.63)"/>
      <circle cx="140.2" cy="115.37" r="1.42" transform="translate(-40.31 134.92) rotate(-45.63)"/>
      <circle cx="140.2" cy="106.79" r="1.42" transform="translate(-34.18 132.34) rotate(-45.63)"/>
      <circle cx="140.2" cy="124.04" r="1.42" transform="translate(-46.51 137.52) rotate(-45.63)"/>
      <g id="rear-inner-2" data-name="rear-inner">
        <path d="M197.12,105.92a3.67,3.67,0,0,1,3.67,3.67v11.57a3.67,3.67,0,0,1-3.67,3.67H148.54a3.67,3.67,0,0,1-3.67-3.67V109.59a3.67,3.67,0,0,1,3.67-3.67h48.58m0-2H148.54a5.69,5.69,0,0,0-5.67,5.67v11.57a5.69,5.69,0,0,0,5.67,5.67h48.58a5.69,5.69,0,0,0,5.67-5.67V109.59a5.69,5.69,0,0,0-5.67-5.67Z"/>
      </g>
      <g id="rear-inner-3" data-name="rear-inner">
        <path d="M151.47,122.63a2.58,2.58,0,1,1,0-5.17h42.71a2.58,2.58,0,1,1,0,5.17Z"/>
        <path d="M194.18,117.71a2.33,2.33,0,1,1,0,4.67H151.47a2.33,2.33,0,1,1,0-4.67h42.71m0-.5H151.47a2.84,2.84,0,0,0-2.83,2.83h0a2.84,2.84,0,0,0,2.83,2.83h42.71A2.84,2.84,0,0,0,197,120h0a2.84,2.84,0,0,0-2.83-2.83Z"/>
      </g>
      <g id="rear-inner-4" data-name="rear-inner">
        <path d="M151.47,113.38a2.58,2.58,0,1,1,0-5.17h42.71a2.58,2.58,0,1,1,0,5.17Z"/>
        <path d="M194.18,108.46a2.33,2.33,0,1,1,0,4.67H151.47a2.33,2.33,0,1,1,0-4.67h42.71m0-.5H151.47a2.84,2.84,0,0,0-2.83,2.83h0a2.84,2.84,0,0,0,2.83,2.83h42.71a2.84,2.84,0,0,0,2.83-2.83h0a2.84,2.84,0,0,0-2.83-2.83Z"/>
      </g>
    </g>
    <g id="body-line">
      <path d="M86.82,30c5.33,0,12.95,2.53,23.41,11.45,0,0-21,29.72,20.23,45.29,7.59,2.87,15.15,4.65,21,4.65h2c16.49,0,38.28.42,38.28.42l.09,3.73c12.85-.34,27.9-1.9,41.35-6.84,13.08-4.81,19.51-11,25.66-14.4a3.63,3.63,0,0,1,1.73-.55c4,0,2,11.47-1.11,16.48-3.46,5.62-12.3,25.63-4.19,42.5s3.18,9,28.27,51.87,21.81,75.59,16.26,89.49-20.08,61.17-101.94,67.66c-9.78.77-19.62,1.23-29.45,1.23a261.47,261.47,0,0,1-37.49-2.54c-14.32-2.07-111.08-22.79-88.3-120.82,3.18-13.68,10-27.21,17.89-38.89,13.06-19.44,19.67-33.87,25.65-45.46,10.35-25.36-1-40.37-8.4-54.29C62.42,47.42,74.21,36.41,77,33.88A13.85,13.85,0,0,1,86.82,30m0-3A16.83,16.83,0,0,0,75,31.67c-10.62,9.73-10.6,27.22.07,50.58l0,.08,0,.08c.81,1.52,1.68,3.08,2.52,4.58,7.09,12.69,14.42,25.81,5.8,47-1,2-2,4-3.11,6.12A333.38,333.38,0,0,1,58,179.08C49,192.54,42.63,206.33,39.69,219c-7.15,30.77-3.44,57.12,11,78.31,25.93,38,77.57,45.84,79.76,46.15A262.29,262.29,0,0,0,168.4,346c9.41,0,19.12-.41,29.69-1.24,34.1-2.7,60.8-12.76,79.34-29.89,15.25-14.09,21.16-29.37,24.34-37.59.29-.75.56-1.44.81-2.06,2.54-6.35,13.68-40.63-16.45-92.12-20.08-34.31-20.85-36-24.53-44-.9-1.94-2-4.36-3.62-7.71-7.32-15.22.44-33.77,4-39.63,2.76-4.5,5.14-14.25,2.76-18.51a4.74,4.74,0,0,0-4.2-2.54,6.57,6.57,0,0,0-3.19.93c-2,1.1-3.93,2.44-6,3.86A82.13,82.13,0,0,1,232.15,85.9c-10.19,3.75-22.76,6-37.39,6.56l0-.7-.07-2.87-2.88-.06c-.22,0-22-.42-38.34-.42h-2c-5.25,0-12.32-1.58-19.92-4.45-12.59-4.76-20.23-11.26-22.73-19.33-3.36-10.87,3.82-21.32,3.89-21.43L114.24,41l-2.07-1.77C102.7,31.12,94.17,27,86.82,27Z"/>
    </g>
    <g id="tail">
      <polyline class="cls-1" points="148.81 342.14 148.81 292.94 197.86 276.95 197.86 342.71 179.22 342.71 179.22 306.27 167.39 306.27 167.39 342.71 148.81 342.71 148.81 342.14"/>
      <g id="rear-toaster-lower-2" data-name="rear-toaster-lower">
        <path d="M187.14,344.46a2.58,2.58,0,1,1,0-5.17h2.71a2.58,2.58,0,1,1,0,5.17Z"/>
        <path d="M189.85,339.54a2.33,2.33,0,0,1,0,4.67h-2.71a2.33,2.33,0,0,1,0-4.67h2.71m0-.5h-2.71a2.84,2.84,0,0,0-2.83,2.83h0a2.84,2.84,0,0,0,2.83,2.83h2.71a2.84,2.84,0,0,0,2.83-2.83h0a2.84,2.84,0,0,0-2.83-2.83Z"/>
      </g>
      <g id="rear-toaster-lower-3" data-name="rear-toaster-lower">
        <path d="M157.14,344.46a2.58,2.58,0,1,1,0-5.17h2.71a2.58,2.58,0,1,1,0,5.17Z"/>
        <path d="M159.85,339.54a2.33,2.33,0,0,1,0,4.67h-2.71a2.33,2.33,0,0,1,0-4.67h2.71m0-.5h-2.71a2.84,2.84,0,0,0-2.83,2.83h0a2.84,2.84,0,0,0,2.83,2.83h2.71a2.84,2.84,0,0,0,2.83-2.83h0a2.84,2.84,0,0,0-2.83-2.83Z"/>
      </g>
      <path d="M153,295.06h3.17a0,0,0,0,1,0,0v3.58a1.58,1.58,0,0,1-1.58,1.58h0a1.58,1.58,0,0,1-1.58-1.58v-3.58A0,0,0,0,1,153,295.06Z"/>
      <path d="M159.91,292.48h3.17a0,0,0,0,1,0,0v3.58a1.58,1.58,0,0,1-1.58,1.58h0a1.58,1.58,0,0,1-1.58-1.58v-3.58A0,0,0,0,1,159.91,292.48Z"/>
      <path d="M167.67,289.41h3.17a0,0,0,0,1,0,0V293a1.58,1.58,0,0,1-1.58,1.58h0a1.58,1.58,0,0,1-1.58-1.58v-3.58A0,0,0,0,1,167.67,289.41Z"/>
      <path d="M175.86,286.78H179a0,0,0,0,1,0,0v3.58a1.58,1.58,0,0,1-1.58,1.58h0a1.58,1.58,0,0,1-1.58-1.58v-3.58A0,0,0,0,1,175.86,286.78Z"/>
      <path d="M183.77,284.25h3.17a0,0,0,0,1,0,0v3.58a1.58,1.58,0,0,1-1.58,1.58h0a1.58,1.58,0,0,1-1.58-1.58v-3.58A0,0,0,0,1,183.77,284.25Z"/>
      <path d="M191.8,281.41H195a0,0,0,0,1,0,0V285a1.58,1.58,0,0,1-1.58,1.58h0A1.58,1.58,0,0,1,191.8,285v-3.58A0,0,0,0,1,191.8,281.41Z"/>
    </g>
    <g id="control">
      <circle cx="260.33" cy="283.07" r="8.69"/>
      <circle cx="257.36" cy="199.1" r="5.73"/>
      <circle cx="243.3" cy="228.04" r="10.66"/>
      <circle cx="277.3" cy="225.04" r="10.66"/>
      <circle cx="241.3" cy="262.04" r="10.66"/>
      <circle cx="277.3" cy="262.04" r="10.66"/>
    </g>
    <g id="screw">
      <circle cx="214.14" cy="114.34" r="2.86" transform="translate(-17.34 187.47) rotate(-45.63)"/>
      <circle cx="270.14" cy="179.34" r="2.86" transform="translate(-46.97 247.05) rotate(-45.63)"/>
      <circle cx="215.14" cy="212.34" r="2.86" transform="translate(-87.1 217.65) rotate(-45.63)"/>
      <circle cx="256.14" cy="315.34" r="2.86" transform="translate(-148.4 277.94) rotate(-45.63)"/>
    </g>
    <path id="pin-lower" d="M175.71,344.71a14.81,14.81,0,0,0-5.29-.14l-2.51,5.54H178L176.77,345C176.42,344.93,176.07,344.81,175.71,344.71Z"/>
    <path id="pin-upper" d="M82.62,29c2.16.27,4.31.64,6.5.74,1.89.08,3.72,0,5.55.05l-.83-.56,2.25-4.6-9.65-2.35.37,5.25C85.3,28,83.91,28.53,82.62,29Z"/>
    <g id="neck">
      <path d="M188.08-261.53l4.72,359.82h-40l4.64-359.82h30.67m2-2H155.44l-4.69,363.82h44.08l-4.77-363.82Z"/>
      <g>
        <polygon points="152.73 62.91 152.89 50.92 192.69 50.92 192.87 64.92 152.73 62.91"/>
        <path d="M191.2,52.42l.14,10.92-37.1-1.85.12-9.07H191.2m3-3H151.41l-.19,14.92,43.18,2.15-.22-17.08Z"/>
      </g>
      <g>
        <polygon points="152.27 98.79 152.62 71.29 192.95 71.29 193.31 98.79 152.27 98.79"/>
        <path d="M191.47,72.79l.32,24.5h-38l.32-24.5h37.37m3-3H151.14l-.39,30.5h44.08l-.4-30.5Z"/>
      </g>
      <g>
        <polygon points="153.01 41.56 153.19 27.57 192.38 27.57 192.6 44.37 153.01 41.56"/>
        <path d="M190.9,29.08l.18,13.68-36.55-2.59.14-11.09H190.9m3-3H151.71L151.49,43l42.63,3-.26-19.91Z"/>
      </g>
      <g>
        <polygon points="153.31 17.71 153.7 -12.26 191.86 -12.26 192.3 21.48 153.31 17.71"/>
        <path d="M190.38-10.76l.4,30.59-35.95-3.47.35-27.11h35.19m3-3H152.22l-.42,32.84,42,4.06-.48-36.9Z"/>
      </g>
    </g>
    <path id="pickguard-lower" class="cls-1" d="M282.33,187.7l.15.31s-34.73-14-66.2,34.9c-2.67,4.16-4.53,3.85-5.67,2.68,5.21,66.27,44.49,97.76,44.49,97.76S336.11,283.42,282.33,187.7Z"/>
    <path id="pickguard-upper" class="cls-1" d="M282.48,188s-34.73-14-66.2,34.9c-5,7.75-6.88.5-6.88.5l-.24-14.74s-1.25-6.25-7.25-6.33-7.08-.08-7.08-.08V130.43l8,0a7.15,7.15,0,0,0,6.21-7.53V102.47S262,145.4,282.48,188Z"/>
  </g>
  <g id="strings">
    <line id="string-1" class="cls-2" x1="152.42" y1="291.76" x2="154.56" y2="-40.33"/>
    <line id="string-2" class="cls-2" x1="154.11" y1="291.21" x2="157.38" y2="-39"/>
    <line id="string-3" class="cls-2" x1="159.62" y1="289.32" x2="161.88" y2="-38.25"/>
    <line id="string-4" class="cls-2" x1="161.5" y1="288.8" x2="164.13" y2="-38.25"/>
    <line id="string-5" class="cls-2" x1="167.56" y1="286.83" x2="169" y2="-37.63"/>
    <line id="string-6" class="cls-2" x1="169.63" y1="285.63" x2="171.43" y2="-40.33"/>
    <line id="string-7" class="cls-2" x1="176.25" y1="283.99" x2="175.25" y2="-39"/>
    <line id="string-8" class="cls-2" x1="178.06" y1="282.88" x2="177.5" y2="-37.63"/>
    <line id="string-9" class="cls-2" x1="183.95" y1="281.48" x2="181.5" y2="-37.63"/>
    <line id="string-10" class="cls-2" x1="185.62" y1="280.06" x2="183.95" y2="-39"/>
    <line id="string-11" class="cls-2" x1="191.72" y1="278.95" x2="188.63" y2="-37.63"/>
    <line id="string-12" class="cls-2" x1="193.69" y1="277.88" x2="190.63" y2="-38.25"/>
  </g>
</svg>
